<svg xmlns="http://www.w3.org/2000/svg" xmlns:xlink="http://www.w3.org/1999/xlink" width="88" height="88" viewBox="0 0 88 88" fill="none"><g opacity="1"  transform="translate(0 0)  rotate(0)"><path id="圆形 1" fill-rule="evenodd" style="fill:#AAAAAA" opacity="1" d="M44 0C32.95 0 24 8.95 24 20C24 31.05 32.95 40 44 40C55.05 40 64 31.05 64 20C64 8.95 55.05 0 44 0Z"></path><path id="圆形 1" fill-rule="evenodd" style="fill:#AAAAAA" opacity="1" d="M20 48C8.95 48 0 56.95 0 68C0 79.05 8.95 88 20 88C31.05 88 40 79.05 40 68C40 56.95 31.05 48 20 48Z"></path><path id="圆形 1" fill-rule="evenodd" style="fill:#AAAAAA" opacity="1" d="M68 48C56.95 48 48 56.95 48 68C48 79.05 56.95 88 68 88C79.05 88 88 79.05 88 68C88 56.95 79.05 48 68 48Z"></path></g></svg>