<svg xmlns="http://www.w3.org/2000/svg" xmlns:xlink="http://www.w3.org/1999/xlink" width="84" height="80" viewBox="0 0 84 80" fill="none"><g opacity="1"  transform="translate(0 0)  rotate(0)"><path id="圆形 1" fill-rule="evenodd" style="fill:#6FD798" opacity="1" d="M64 40C52.95 40 44 48.95 44 60C44 71.05 52.95 80 64 80C75.05 80 84 71.05 84 60C84 48.95 75.05 40 64 40Z"></path><path id="圆形 1" fill-rule="evenodd" style="fill:#6FD798" opacity="1" d="M42 0C30.95 0 22 8.95 22 20C22 31.05 30.95 40 42 40C53.05 40 62 31.05 62 20C62 8.95 53.05 0 42 0Z"></path><path id="圆形 1" fill-rule="evenodd" style="fill:#6FD798" opacity="1" d="M20 40C8.95 40 0 48.95 0 60C0 71.05 8.95 80 20 80C31.05 80 40 71.05 40 60C40 48.95 31.05 40 20 40Z"></path></g></svg>